<svg viewBox="0 0 60 60" xmlns="http://www.w3.org/2000/svg"><g fill="#000" fill-rule="nonzero"><path d="M43.202 0H16.466C7.386 0 0 7.387 0 16.466v26.736c0 9.08 7.387 16.467 16.466 16.467h26.736c9.08 0 16.467-7.387 16.467-16.467V16.466C59.669 7.387 52.282 0 43.202 0zm11.173 43.202c0 6.161-5.012 11.173-11.173 11.173H16.466c-6.16 0-11.172-5.012-11.172-11.173V16.466c0-6.16 5.012-11.172 11.172-11.172h26.736c6.16 0 11.173 5.012 11.173 11.172v26.736z"/><path d="M29.834 14.46c-8.478 0-15.375 6.897-15.375 15.375S21.356 45.21 29.834 45.21 45.21 38.313 45.21 29.835 38.312 14.46 29.834 14.46zm0 25.455c-5.558 0-10.08-4.522-10.08-10.08 0-5.559 4.522-10.081 10.08-10.081 5.56 0 10.082 4.522 10.082 10.08 0 5.56-4.523 10.081-10.082 10.081zm16.02-29.944c-1.02 0-2.022.413-2.742 1.136a3.901 3.901 0 0 0-1.14 2.746c0 1.02.417 2.023 1.14 2.746a3.912 3.912 0 0 0 2.742 1.137 3.92 3.92 0 0 0 2.746-1.137 3.912 3.912 0 0 0 1.137-2.746 3.9 3.9 0 0 0-1.137-2.746 3.9 3.9 0 0 0-2.746-1.136z"/></g></svg>
