<svg viewBox="0 0 74 60" xmlns="http://www.w3.org/2000/svg"><path d="M74 7.14a30.207 30.207 0 0 1-8.685 2.382 15.189 15.189 0 0 0 6.648-8.363 30.494 30.494 0 0 1-9.611 3.672A15.083 15.083 0 0 0 51.312.053c-8.353 0-15.126 6.773-15.126 15.122 0 1.184.133 2.34.391 3.447-12.57-.632-23.715-6.654-31.174-15.804a15.011 15.011 0 0 0-2.046 7.602c0 5.248 2.672 9.879 6.727 12.588-2.402-.08-4.751-.73-6.852-1.898v.189c0 7.326 5.216 13.44 12.132 14.831-1.267.341-2.603.53-3.985.53-.977 0-1.922-.097-2.848-.28 1.926 6.012 7.51 10.385 14.127 10.504A30.348 30.348 0 0 1 3.873 53.35c-1.221 0-2.424-.074-3.608-.207a42.756 42.756 0 0 0 23.185 6.805c27.826 0 43.035-23.047 43.035-43.035l-.05-1.958A30.205 30.205 0 0 0 74 7.14z" fill="#010002" fill-rule="nonzero"/></svg>
